<svg xmlns="http://www.w3.org/2000/svg" viewBox="0 0 142 144">
<!-- SVG created with Arrow, by QuiverAI (https://quiver.ai) -->
  <style type="text/css">.cls-0 {fill:url(#SVGID_1_);}
.cls-1 {fill:#ECAC3B;}
.cls-2 {fill:#C98D2B;}
.cls-3 {fill:#F7BD49;}
.cls-4 {fill:#ECAC3C;}
.cls-5 {fill:#F8B948;}
.cls-6 {fill:#FFECB2;}
.cls-7 {fill:#FFEBB1;}</style>
  <linearGradient id="SVGID_1_" x1="71.2" x2="71.2" y1="143.1" y2=".9875" gradientTransform="matrix(1 0 0 -1 0 144)" gradientUnits="userSpaceOnUse">
    <stop stop-color="#363638" offset="0"/>
    <stop stop-color="#232428" offset="1"/>
  </linearGradient>
  <path class="cls-0" d="m112 0.9h-82.7c-15.5 0-28.7 12.8-28.7 28.9v84.2c0 15.4 11.7 29 29.1 29h82.3c15.7 0 29.8-12.7 29.8-29.8v-83.4c0-15.4-13.3-28.9-29.8-28.9z"/>
  <path class="cls-1" d="m95.8 96.5c2.2-1.1 4.9-2 9.3-2.5 14.5-1.1 22.3-10 22-20.4-0.1-5.6-4.4-11.4-11.2-11.4-4.3 0-9.1 2.3-13.1 7.8-3.6 4.9-5.6 7-20.3 7.9-21.1 1.1-29.8-0.8-36.2-3-6.4-1.9-7.2-2.6-12.7-2.6-5.4 0.1-9.7-0.6-9.8 1.3 0 1.1 0.9 2.2 2.5 2.5 12.5 2.7 18.9 15.1 32.6 22.9 5 2.9 9.5 5.4 16.8 5.4 8.4 0.1 15.6-3.5 20.1-7.9zm5.7-8.4c1.3-3.2 2.1-8 3.6-12.3 2-6.2 5.8-9.8 10.4-9.8 5.2 0 7.7 4 7.7 8.2 0 7.9-7.6 14.6-16.8 15.6-2.9 0.2-4.5-0.5-4.9-1.7z"/>
  <path class="cls-2" d="m47.9 76.9c5.2 1.5 13.8 2.9 24.8 2.9 10.6 0 18.1-0.8 22.6-2.5-3.4 2.3-9.7 5.6-22.2 5.7-9 0.1-16.7-2.4-25.2-6.1z"/>
  <path class="cls-1" d="m64.5 102.6c-0.1 1-1.4 2.5-4.5 3.3-1.7 0.5-3.6 0.9-3.5 3.1 0 1 0.8 2.1 10.4 3.1 9.2 0.9 23 0.4 28.4-1.4 1.5-0.5 1.4-1.2 1.3-2.1-0.1-1.8-1.5-2-3.4-2.5-3.6-0.9-4.8-2.7-4.8-4.1-2.9 1.1-6.9 2.4-12.9 2.4-4.6 0-8-0.8-11-1.8z"/>
  <path class="cls-2" d="m58 106.9c0.7 0.9 8.3 2.2 18.1 2.3 7.2 0 17.8-0.8 19-2.3-2.3-0.8-6.4-1.4-6.8-4.9-3.5 1.4-7.8 2.4-12.8 2.4-3.8 0-7.4-0.4-11-1.8-0.2 1.3-2.4 3-6.5 3.8v0.5z"/>
  <path class="cls-3" d="m24 73.6c0.3 0.3 2.5 0.4 7.1 0.4 10.2 0 16.4 6.2 27.3 9.1 9.1 2.5 20.7 2.9 29.1 0.3 7.4-2.2 13.3-5.9 16-10.2 1.3-1.8 0.1-3.6-0.2-3.8-2.8 4.2-5.4 7-15.8 8-10.8 1.2-23.6 1.5-33.8-0.5-7.3-1.3-12-4-17.6-4.5-5-0.3-12.6-0.5-12.2 1.2h0.1z"/>
  <path class="cls-4" d="m32.2 43.9c-0.7 2-5.1 12.7-5.1 18.7 0 5.3 2.4 8.5 5 8.5 1.8 0.1 4.7-2.5 4.7-7.7 0-5.4-3.7-11.9-4.6-19.5z"/>
  <path class="cls-5" d="m95.8 96.4c2.1-1 4.2-1.8 9.3-2.4 5.6-0.6 11.2-2 15.3-5.5l-2-1.5c-2.4 1.9-6.5 3-9.5 3-2.5 0.1-6.2 0.5-7.4-1.5-1.4 2.9-3.6 6-5.7 7.9z"/>
  <path class="cls-6" d="m32.1 58c-1 2.9-2.5 6.1-2.5 8.4 0.2 3.4 1.2 4.7 2.5 4.7 1.5 0 2.4-1.7 2.4-4.5 0-2.5-1.6-5.5-2.4-8.6z"/>
  <path class="cls-7" d="m32.1 58.1c-0.4 2.4-1.7 4.8-1.7 7.5 0.1 3.4 0.9 5.5 1.7 5.5 1.2 0 2.3-1.7 2.3-4.5 0-2.5-1.5-5.5-2.3-8.5z"/>
</svg>